# xmcd
# 
# Track frame offsets:
#     150
#     17536
#     31328
#     48102
#     60589
#     73972
#     89011
#     105493
#     138419
#     154339
#     173032
#     181166
#     197690
#     212522
# 
# Disc length: 2996
# 
# Revision: 52
# Processed by: cddbd v1.5.2PL0 Copyright (c) Steve Scherf et al.
# Submitted via: fre:ac v1.0.31
# 
DISCID=ba0bb20e
DTITLE=The White Stripes - Elephant
DYEAR=2003
DGENRE=Alternative
TTITLE0=Seven Nation Army
TTITLE1=Black Math
TTITLE2=There's No Home for You Here
TTITLE3=I Just Don't Know What to Do With Myself
TTITLE4=In the Cold, Cold Night
TTITLE5=I Want to Be the Boy to Warm Your Mother's Heart
TTITLE6=You've Got Her iIn Your Pocket
TTITLE7=Ball and Biscuit
TTITLE8=The Hardest Button to Button
TTITLE9=Little Acorns
TTITLE10=Hypnotize
TTITLE11=The Air Near My Fingers
TTITLE12=Girl, You Have No Faith in Medicine
TTITLE13=Well It's True That We Love One Another
EXTD=
EXTT0=
EXTT1=
EXTT2=
EXTT3=
EXTT4=
EXTT5=
EXTT6=
EXTT7=
EXTT8=
EXTT9=
EXTT10=
EXTT11=
EXTT12=
EXTT13=
PLAYORDER=
